<?xml version="1.0" encoding="UTF-8" standalone="no"?>
<!-- Created with Inkscape (http://www.inkscape.org/) -->

<svg
   xmlns:dc="http://purl.org/dc/elements/1.1/"
   xmlns:cc="http://creativecommons.org/ns#"
   xmlns:rdf="http://www.w3.org/1999/02/22-rdf-syntax-ns#"
   xmlns:svg="http://www.w3.org/2000/svg"
   xmlns="http://www.w3.org/2000/svg"
   xmlns:sodipodi="http://sodipodi.sourceforge.net/DTD/sodipodi-0.dtd"
   xmlns:inkscape="http://www.inkscape.org/namespaces/inkscape"
   width="1052.3622"
   height="744.09448"
   id="svg2"
   version="1.1"
   inkscape:version="0.91 r13725"
   sodipodi:docname="lvm.svg">
  <defs
     id="defs4" />
  <sodipodi:namedview
     id="base"
     pagecolor="#000000"
     bordercolor="#666666"
     borderopacity="1.0"
     inkscape:pageopacity="0.45882353"
     inkscape:pageshadow="2"
     inkscape:zoom="0.35"
     inkscape:cx="182.39259"
     inkscape:cy="252.70929"
     inkscape:document-units="px"
     inkscape:current-layer="layer1"
     showgrid="false"
     inkscape:window-width="1127"
     inkscape:window-height="640"
     inkscape:window-x="208"
     inkscape:window-y="208"
     inkscape:window-maximized="0" />
  <metadata
     id="metadata7">
    <rdf:RDF>
      <cc:Work
         rdf:about="">
        <dc:format>image/svg+xml</dc:format>
        <dc:type
           rdf:resource="http://purl.org/dc/dcmitype/StillImage" />
        <dc:title></dc:title>
      </cc:Work>
    </rdf:RDF>
  </metadata>
  <g
     inkscape:label="Layer 1"
     inkscape:groupmode="layer"
     id="layer1"
     transform="translate(0,-308.2677)">
    <path
       style="fill:none;stroke:#ffffff;stroke-width:2.10220218;stroke-linecap:butt;stroke-linejoin:miter;stroke-miterlimit:4;stroke-dasharray:none;stroke-opacity:1"
       d="m 354.73445,768.16016 c 0,-7.92711 0,-15.85424 0,-23.78134 0,-5.74032 0,-11.48064 0,-17.22097 0,-1.36674 0,-2.73349 0,-4.10023 0,-1.0934 -0.46013,-2.20802 0,-3.28019 0.16268,-0.37906 1.55849,-0.44502 1.75968,-0.82004 0.39178,-0.73031 0,-4.65133 0,-5.74032 0,-0.27335 0,-0.54671 0,-0.82005 0,-0.27336 -0.52462,-0.6978 0,-0.82004 1.04928,-0.2445 2.34626,0 3.51938,0 3.91114,0 8.57258,0.24933 12.31778,0 1.83623,-0.12226 3.43553,-0.7246 5.27905,-0.82005 3.49784,-0.18112 7.03874,0 10.5581,0 2.9328,0 5.8656,0 8.79841,0 12.31779,0 24.63558,0 36.95336,0 9.38496,0 18.76995,0 28.15493,0 4.69248,0 9.38497,0 14.07746,0 1.17312,0 2.36903,0.10721 3.51937,0 12.50815,-1.16581 -2.9045,-0.82005 12.31777,-0.82005 8.21186,0 16.42372,0 24.63558,0 2.93281,0 5.86561,0 8.79841,0 1.17313,0 2.36903,0.10722 3.51936,0 1.81886,-0.16952 3.44943,-0.67793 5.27906,-0.82005 2.89291,-0.22469 5.86561,0 8.79842,0 4.69249,0 9.38497,0 14.07747,0 9.97154,0 19.94307,0 29.91461,0 1.75968,0 3.51936,0 5.27906,0 0.58655,0 1.34491,-0.19329 1.75968,0 0.82951,0.38657 -0.37097,1.12145 0,1.6401 4.98491,4.64612 -0.6558,-1.22245 1.75968,3.28018 0.3181,0.59297 1.44157,1.04711 1.75968,1.64008 0.34605,0.64508 0,4.0675 0,4.92029 0,0.27334 -0.14226,0.55485 0,0.82004 0.44987,0.83859 1.45474,1.60749 1.75969,2.46013 0.28929,0.8089 0,1.6401 0,2.46015 0,2.18678 0,4.37358 0,6.56038 0,4.64692 0,9.29385 0,13.94078 0,4.64693 0,9.29386 0,13.94079 0,1.0934 0,2.18678 0,3.28018 0,0.27335 0.58655,0.82006 0,0.82006 -0.58657,0 0.58655,-0.82006 0,-0.82006 -0.82953,0 -1.01774,0.64716 -1.75969,0.82006 -0.52464,0.12222 -1.17312,0 -1.75968,0 -0.58656,0 -1.17313,0 -1.75968,0 -2.93281,0 -5.86562,0 -8.79842,0 -5.27905,0 -10.55811,0 -15.83715,0 -1.75968,0 -3.51938,0 -5.27906,0 -1.17312,0 -2.36901,0.10721 -3.51936,0 -1.81884,-0.16953 -3.44942,-0.67795 -5.27904,-0.82006 -1.73575,-0.13482 -3.51938,0 -5.27906,0 -5.27904,0 -10.5581,0 -15.83715,0 -1.75968,0 -3.57191,0.19889 -5.27906,0 -0.80474,-0.0938 -0.97271,-0.69781 -1.75968,-0.82004 -1.11291,-0.17289 -2.34623,0 -3.51936,0 -1.17312,0 -2.34624,0 -3.51936,0 -3.51937,0 -7.03874,0 -10.5581,0 -7.03874,0 -14.07747,0 -21.11621,0 -1.34336,0 -9.44941,-0.17223 -10.55809,0 -1.24429,0.19329 -2.24695,0.6718 -3.51937,0.82004 -1.33818,0.1559 -7.32488,0 -8.79842,0 -7.62529,0 -15.25058,0 -22.87589,0 -1.28857,0 -8.81021,-0.16291 -10.55808,0 -1.81886,0.16952 -3.46021,0.65053 -5.27906,0.82006 -1.15033,0.10721 -2.34624,0 -3.51936,0 -3.51937,0 -7.03874,0 -10.55811,0 -2.34624,0 -4.69248,0 -7.03874,0 -1.17312,0 -2.34623,0 -3.51936,0 -0.58655,0 -1.23504,-0.12226 -1.75968,0 -0.74195,0.17286 -1.01773,0.64715 -1.75968,0.82003 -0.52464,0.12225 -1.17312,0 -1.75969,0 -0.58655,0 -1.17311,0 -1.75968,0 -4.69249,0 -9.38497,0 -14.07747,0 -1.2151,0 -6.50372,-0.12467 -7.03873,0 -0.74194,0.17288 -1.01773,0.64716 -1.75968,0.82004 -0.69771,0.16258 -4.9193,-0.16764 -5.27906,0 -0.41475,0.19329 0.41477,0.62676 0,0.82005 -0.14047,0.0654 -2.81609,-0.0546 -3.51936,0 -2.95019,0.22914 -5.8656,0.5467 -8.79842,0.82004 z"
       id="path2987-25-4"
       inkscape:connector-curvature="0" />
    <text
       xml:space="preserve"
       style="font-style:normal;font-weight:normal;font-size:22px;line-height:125%;font-family:Sans;letter-spacing:0px;word-spacing:0px;fill:#ffffff;fill-opacity:1;stroke:none"
       x="691.26941"
       y="832.52765"
       id="text3137"
       sodipodi:linespacing="125%"><tspan
         sodipodi:role="line"
         id="tspan3139"
         x="691.26941"
         y="832.52765">Physical volumes</tspan></text>
    <text
       xml:space="preserve"
       style="font-style:normal;font-weight:normal;font-size:22px;line-height:125%;font-family:Sans;letter-spacing:0px;word-spacing:0px;fill:#ffffff;fill-opacity:1;stroke:none"
       x="403.35785"
       y="746.74158"
       id="text3141"
       sodipodi:linespacing="125%"><tspan
         sodipodi:role="line"
         id="tspan3143"
         x="403.35785"
         y="746.74158">Volume group</tspan></text>
    <path
       style="fill:none;stroke:#ffffff;stroke-width:1.38963377;stroke-linecap:butt;stroke-linejoin:miter;stroke-miterlimit:4;stroke-dasharray:none;stroke-opacity:1"
       d="m 358.79878,630.80215 c 0,-13.19244 0,-26.3849 0,-39.57734 0,-9.55315 0,-19.1063 0,-28.65946 0,-2.27456 0,-4.54912 0,-6.82368 0,-1.81965 -0.12081,-3.67462 0,-5.45894 0.0427,-0.63085 0.40921,-0.74061 0.46204,-1.36473 0.10287,-1.2154 0,-7.74083 0,-9.55315 0,-0.45492 0,-0.90984 0,-1.36474 0,-0.45492 -0.13775,-1.1613 0,-1.36473 0.27551,-0.4069 0.61605,0 0.92408,0 1.02693,0 2.25087,0.41494 3.23425,0 0.48213,-0.20346 0.90206,-1.20589 1.3861,-1.36474 0.91842,-0.30143 1.84815,0 2.77222,0 0.77006,0 1.54012,0 2.31018,0 3.23426,0 6.46851,0 9.70276,0 2.46419,0 4.92839,0 7.39258,0 1.2321,0 2.46419,0 3.69629,0 0.30802,0 0.62203,0.17843 0.92407,0 3.28424,-1.94015 -0.76263,-1.36474 3.23426,-1.36474 2.15616,0 4.31233,0 6.4685,0 0.77006,0 1.54013,0 2.31018,0 0.30802,0 0.62204,0.17843 0.92407,0 0.47758,-0.28213 0.90571,-1.12823 1.38612,-1.36474 0.75958,-0.37394 1.54011,0 2.31017,0 1.2321,0 2.4642,0 3.69629,0 2.61821,0 5.23641,0 7.85461,0 0.46204,0 0.92408,0 1.38612,0 0.15401,0 0.35313,-0.32168 0.46203,0 0.21781,0.64333 -0.0974,1.86633 0,2.72948 1.30888,7.73217 -0.17219,-2.03442 0.46204,5.45896 0.0835,0.98683 0.37851,1.74263 0.46203,2.72946 0.0909,1.07353 0,6.76919 0,8.18843 0,0.4549 -0.0374,0.9234 0,1.36473 0.11812,1.3956 0.38198,2.67521 0.46204,4.0942 0.076,1.34616 0,2.72948 0,4.0942 0,3.6393 0,7.27861 0,10.91789 0,7.73352 0,15.46702 0,23.20051 0,7.73352 0,15.46702 0,23.20052 0,1.81966 0,3.63929 0,5.45894 0,0.4549 0.15402,1.36475 0,1.36475 -0.15402,0 0.15402,-1.36475 0,-1.36475 -0.21781,0 -0.26722,1.07702 -0.46204,1.36475 -0.13775,0.20342 -0.30802,0 -0.46203,0 -0.15402,0 -0.30802,0 -0.46204,0 -0.77006,0 -1.54011,0 -2.31018,0 -1.38611,0 -2.77221,0 -4.15832,0 -0.46204,0 -0.92408,0 -1.38611,0 -0.30802,0 -0.62203,0.17842 -0.92407,0 -0.47757,-0.28214 -0.90571,-1.12826 -1.38611,-1.36475 -0.45576,-0.22435 -0.92408,0 -1.38611,0 -1.38611,0 -2.77222,0 -4.15832,0 -0.46204,0 -0.93788,0.33099 -1.38612,0 -0.2113,-0.1561 -0.2554,-1.16129 -0.46203,-1.36473 -0.29222,-0.28772 -0.61605,0 -0.92407,0 -0.30802,0 -0.61605,0 -0.92408,0 -0.92407,0 -1.84814,0 -2.77222,0 -1.84814,0 -3.69628,0 -5.54443,0 -0.35273,0 -2.48111,-0.28663 -2.77221,0 -0.32671,0.32167 -0.58998,1.11801 -0.92408,1.36473 -0.35136,0.25945 -1.92327,0 -2.31018,0 -2.00215,0 -4.00431,0 -6.00647,0 -0.33834,0 -2.31328,-0.27111 -2.77221,0 -0.47758,0.28212 -0.90854,1.08261 -1.38612,1.36475 -0.30204,0.17842 -0.61604,0 -0.92407,0 -0.92407,0 -1.84815,0 -2.77221,0 -0.61605,0 -1.2321,0 -1.84815,0 -0.30803,0 -0.61605,0 -0.92407,0 -0.15401,0 -0.32428,-0.20346 -0.46203,0 -0.19482,0.28769 -0.26723,1.07701 -0.46204,1.36472 -0.13775,0.20345 -0.30802,0 -0.46204,0 -0.15401,0 -0.30802,0 -0.46203,0 -1.2321,0 -2.46419,0 -3.6963,0 -0.31904,0 -1.70767,-0.20747 -1.84814,0 -0.19481,0.28771 -0.26722,1.07702 -0.46203,1.36474 -0.1832,0.27056 -1.29165,-0.279 -1.38611,0 -0.10891,0.32168 0.1089,1.04306 0,1.36473 -0.0369,0.1089 -0.73942,-0.0909 -0.92407,0 -0.77463,0.38135 -1.54013,0.90984 -2.31019,1.36473 z"
       id="path2987-25-7-6"
       inkscape:connector-curvature="0" />
    <text
       xml:space="preserve"
       style="font-style:normal;font-weight:normal;font-size:22px;line-height:125%;font-family:Sans;letter-spacing:0px;word-spacing:0px;fill:#ffffff;fill-opacity:1;stroke:none"
       x="-305.25278"
       y="651.67432"
       id="text3149"
       sodipodi:linespacing="125%"
       transform="matrix(0.54526422,-0.83826424,0.83826424,0.54526422,0,0)"><tspan
         sodipodi:role="line"
         id="tspan3151"
         x="-305.25278"
         y="651.67432">/media/fileshare</tspan></text>
    <path
       style="fill:none;stroke:#ffffff;stroke-width:1.38963377;stroke-linecap:butt;stroke-linejoin:miter;stroke-miterlimit:4;stroke-dasharray:none;stroke-opacity:1"
       d="m 437.37021,628.30216 c 0,-13.19244 0,-26.3849 0,-39.57734 0,-9.55315 0,-19.1063 0,-28.65946 0,-2.27456 0,-4.54912 0,-6.82368 0,-1.81965 -0.12081,-3.67462 0,-5.45894 0.0427,-0.63085 0.40921,-0.74061 0.46204,-1.36473 0.10287,-1.2154 0,-7.74083 0,-9.55315 0,-0.45492 0,-0.90984 0,-1.36474 0,-0.45492 -0.13775,-1.1613 0,-1.36473 0.27551,-0.4069 0.61605,0 0.92408,0 1.02693,0 2.25087,0.41494 3.23425,0 0.48213,-0.20346 0.90206,-1.20589 1.3861,-1.36474 0.91842,-0.30143 1.84815,0 2.77222,0 0.77006,0 1.54012,0 2.31018,0 3.23426,0 6.46851,0 9.70276,0 2.46419,0 4.92839,0 7.39258,0 1.2321,0 2.46419,0 3.69629,0 0.30802,0 0.62203,0.17843 0.92407,0 3.28424,-1.94015 -0.76263,-1.36474 3.23426,-1.36474 2.15616,0 4.31233,0 6.4685,0 0.77006,0 1.54013,0 2.31018,0 0.30802,0 0.62204,0.17843 0.92407,0 0.47758,-0.28213 0.90571,-1.12823 1.38612,-1.36474 0.75958,-0.37394 1.54011,0 2.31017,0 1.2321,0 2.4642,0 3.69629,0 2.61821,0 5.23641,0 7.85461,0 0.46204,0 0.92408,0 1.38612,0 0.15401,0 0.35313,-0.32168 0.46203,0 0.21781,0.64333 -0.0974,1.86633 0,2.72948 1.30888,7.73216 -0.17219,-2.03443 0.46204,5.45895 0.0835,0.98683 0.37851,1.74263 0.46203,2.72946 0.0909,1.07353 0,6.76919 0,8.18843 0,0.4549 -0.0374,0.9234 0,1.36473 0.11812,1.3956 0.38198,2.67521 0.46204,4.0942 0.076,1.34616 0,2.72948 0,4.0942 0,3.6393 0,7.27861 0,10.9179 0,7.73351 0,15.46701 0,23.20051 0,7.73351 0,15.46701 0,23.20052 0,1.81965 0,3.63929 0,5.45894 0,0.4549 0.15402,1.36475 0,1.36475 -0.15402,0 0.15402,-1.36475 0,-1.36475 -0.21781,0 -0.26722,1.07702 -0.46204,1.36475 -0.13775,0.20342 -0.30802,0 -0.46203,0 -0.15402,0 -0.30802,0 -0.46204,0 -0.77006,0 -1.54011,0 -2.31018,0 -1.38611,0 -2.77221,0 -4.15832,0 -0.46204,0 -0.92408,0 -1.38611,0 -0.30802,0 -0.62203,0.17842 -0.92407,0 -0.47757,-0.28214 -0.90571,-1.12826 -1.38611,-1.36475 -0.45576,-0.22435 -0.92408,0 -1.38611,0 -1.38611,0 -2.77222,0 -4.15832,0 -0.46204,0 -0.93788,0.33099 -1.38612,0 -0.2113,-0.1561 -0.2554,-1.16129 -0.46203,-1.36473 -0.29222,-0.28772 -0.61605,0 -0.92407,0 -0.30802,0 -0.61605,0 -0.92408,0 -0.92407,0 -1.84814,0 -2.77222,0 -1.84814,0 -3.69628,0 -5.54443,0 -0.35273,0 -2.48111,-0.28663 -2.77221,0 -0.32671,0.32167 -0.58998,1.11801 -0.92408,1.36473 -0.35136,0.25945 -1.92327,0 -2.31018,0 -2.00215,0 -4.00431,0 -6.00647,0 -0.33834,0 -2.31328,-0.27111 -2.77221,0 -0.47758,0.28212 -0.90854,1.08261 -1.38612,1.36475 -0.30204,0.17842 -0.61604,0 -0.92407,0 -0.92407,0 -1.84815,0 -2.77221,0 -0.61605,0 -1.2321,0 -1.84815,0 -0.30803,0 -0.61605,0 -0.92407,0 -0.15401,0 -0.32428,-0.20346 -0.46203,0 -0.19482,0.28769 -0.26723,1.07701 -0.46204,1.36472 -0.13775,0.20345 -0.30802,0 -0.46204,0 -0.15401,0 -0.30802,0 -0.46203,0 -1.2321,0 -2.46419,0 -3.6963,0 -0.31904,0 -1.70767,-0.20747 -1.84814,0 -0.19481,0.28771 -0.26722,1.07702 -0.46203,1.36474 -0.1832,0.27056 -1.29165,-0.279 -1.38611,0 -0.10891,0.32168 0.1089,1.04306 0,1.36473 -0.0369,0.1089 -0.73942,-0.0909 -0.92407,0 -0.77463,0.38135 -1.54013,0.90983 -2.31019,1.36473 z"
       id="path2987-25-7-6-8"
       inkscape:connector-curvature="0" />
    <path
       style="fill:none;stroke:#ffffff;stroke-width:1.11231542;stroke-linecap:butt;stroke-linejoin:miter;stroke-miterlimit:4;stroke-dasharray:none;stroke-opacity:1"
       d="m 515.23417,694.15512 c 0,-8.0598 0,-16.11959 0,-24.17938 0,-5.83639 0,-11.67279 0,-17.5092 0,-1.38962 0,-2.77924 0,-4.16885 0,-1.1117 -0.1267,-2.24498 0,-3.33509 0.0448,-0.38541 0.42914,-0.45247 0.48454,-0.83377 0.10788,-0.74253 0,-4.72918 0,-5.83639 0,-0.27793 0,-0.55586 0,-0.83378 0,-0.27793 -0.14446,-0.70948 0,-0.83377 0.28893,-0.24859 0.64606,0 0.96909,0 1.07697,0 2.36053,0.25351 3.39181,0 0.50562,-0.1243 0.946,-0.73673 1.45363,-0.83377 0.96316,-0.18416 1.93817,0 2.90726,0 0.80757,0 1.61514,0 2.42271,0 3.39181,0 6.78361,0 10.17542,0 2.58422,0 5.16846,0 7.75269,0 1.29211,0 2.58423,0 3.87635,0 0.32303,0 0.65233,0.10901 0.96908,0 3.44423,-1.18532 -0.79977,-0.83378 3.39181,-0.83378 2.2612,0 4.5224,0 6.78361,0 0.80757,0 1.61514,0 2.42271,0 0.32303,0 0.65234,0.10902 0.96909,0 0.50084,-0.17236 0.94983,-0.68928 1.45363,-0.83377 0.79659,-0.22845 1.61514,0 2.42272,0 1.29212,0 2.58423,0 3.87635,0 2.74574,0 5.49149,0 8.23723,0 0.48455,0 0.96909,0 1.45364,0 0.16151,0 0.37033,-0.19652 0.48454,0 0.22841,0.39304 -0.10215,1.14022 0,1.66755 1.37264,4.72388 -0.18058,-1.24292 0.48454,3.33509 0.0876,0.6029 0.39695,1.06464 0.48454,1.66753 0.0953,0.65586 0,4.13557 0,5.00264 0,0.27792 -0.0392,0.56414 0,0.83377 0.12388,0.85263 0.40058,1.63439 0.48455,2.50131 0.0797,0.82242 0,1.66754 0,2.50131 0,2.22339 0,4.44679 0,6.67018 0,4.7247 0,9.4494 0,14.17411 0,4.7247 0,9.44941 0,14.17411 0,1.1117 0,2.22339 0,3.33509 0,0.27792 0.16151,0.83378 0,0.83378 -0.16152,0 0.16151,-0.83378 0,-0.83378 -0.22842,0 -0.28024,0.658 -0.48455,0.83378 -0.14446,0.12428 -0.32302,0 -0.48454,0 -0.16151,0 -0.32303,0 -0.48454,0 -0.80758,0 -1.61515,0 -2.42272,0 -1.45363,0 -2.90726,0 -4.36089,0 -0.48454,0 -0.96909,0 -1.45363,0 -0.32303,0 -0.65233,0.10901 -0.96909,0 -0.50083,-0.17237 -0.94982,-0.6893 -1.45363,-0.83378 -0.47795,-0.13706 -0.96909,0 -1.45363,0 -1.45363,0 -2.90726,0 -4.36089,0 -0.48454,0 -0.98355,0.20222 -1.45363,0 -0.22159,-0.0954 -0.26785,-0.70948 -0.48454,-0.83377 -0.30645,-0.17578 -0.64606,0 -0.96909,0 -0.32303,0 -0.64606,0 -0.96909,0 -0.96908,0 -1.93817,0 -2.90726,0 -1.93817,0 -3.87634,0 -5.81452,0 -0.36991,0 -2.60197,-0.17511 -2.90726,0 -0.34262,0.19653 -0.61871,0.68304 -0.96909,0.83377 -0.36848,0.15851 -2.01696,0 -2.42271,0 -2.09969,0 -4.19938,0 -6.29907,0 -0.35482,0 -2.42597,-0.16563 -2.90726,0 -0.50083,0.17236 -0.95279,0.66141 -1.45363,0.83378 -0.31675,0.10901 -0.64606,0 -0.96908,0 -0.96909,0 -1.93818,0 -2.90727,0 -0.64605,0 -1.29211,0 -1.93817,0 -0.32303,0 -0.64606,0 -0.96909,0 -0.16151,0 -0.34008,-0.1243 -0.48454,0 -0.2043,0.17576 -0.28024,0.65799 -0.48454,0.83377 -0.14447,0.12429 -0.32303,0 -0.48455,0 -0.16151,0 -0.32302,0 -0.48454,0 -1.29212,0 -2.58423,0 -3.87635,0 -0.33459,0 -1.79085,-0.12676 -1.93817,0 -0.2043,0.17577 -0.28024,0.65799 -0.48454,0.83377 -0.19212,0.16529 -1.35457,-0.17045 -1.45364,0 -0.1142,0.19652 0.11421,0.63724 0,0.83377 -0.0387,0.0665 -0.77543,-0.0555 -0.96908,0 -0.81236,0.23298 -1.61515,0.55585 -2.42272,0.83377 z"
       id="path2987-25-7-5-7"
       inkscape:connector-curvature="0" />
    <path
       style="fill:none;stroke:#ffffff;stroke-width:1.38963377;stroke-linecap:butt;stroke-linejoin:miter;stroke-miterlimit:4;stroke-dasharray:none;stroke-opacity:1"
       d="m 516.45254,625.57578 c 0,-13.19244 0,-26.3849 0,-39.57734 0,-9.55315 0,-19.1063 0,-28.65946 0,-2.27456 0,-4.54912 0,-6.82368 0,-1.81965 -0.12081,-3.67462 0,-5.45894 0.0427,-0.63085 0.40921,-0.74061 0.46204,-1.36473 0.10287,-1.2154 0,-7.74083 0,-9.55315 0,-0.45492 0,-0.90984 0,-1.36474 0,-0.45492 -0.13775,-1.1613 0,-1.36473 0.27551,-0.4069 0.61605,0 0.92408,0 1.02693,0 2.25087,0.41494 3.23425,0 0.48213,-0.20346 0.90206,-1.20589 1.3861,-1.36474 0.91842,-0.30143 1.84815,0 2.77222,0 0.77006,0 1.54012,0 2.31018,0 3.23426,0 6.46851,0 9.70276,0 2.46419,0 4.92839,0 7.39258,0 1.2321,0 2.46419,0 3.69629,0 0.30802,0 0.62203,0.17843 0.92407,0 3.28424,-1.94015 -0.76263,-1.36474 3.23426,-1.36474 2.15616,0 4.31233,0 6.4685,0 0.77006,0 1.54013,0 2.31018,0 0.30802,0 0.62204,0.17843 0.92407,0 0.47758,-0.28213 0.90571,-1.12823 1.38612,-1.36474 0.75958,-0.37394 1.54011,0 2.31017,0 1.2321,0 2.4642,0 3.69629,0 2.61821,0 5.23641,0 7.85461,0 0.46204,0 0.92408,0 1.38612,0 0.15401,0 0.35313,-0.32168 0.46203,0 0.21781,0.64333 -0.0974,1.86633 0,2.72948 1.30888,7.73216 -0.17219,-2.03443 0.46204,5.45895 0.0835,0.98683 0.37851,1.74263 0.46203,2.72946 0.0909,1.07353 0,6.76919 0,8.18843 0,0.4549 -0.0374,0.9234 0,1.36473 0.11812,1.3956 0.38198,2.67521 0.46204,4.0942 0.076,1.34616 0,2.72948 0,4.0942 0,3.6393 0,7.27861 0,10.9179 0,7.73351 0,15.46701 0,23.20051 0,7.73351 0,15.46701 0,23.20052 0,1.81965 0,3.63929 0,5.45894 0,0.4549 0.15402,1.36475 0,1.36475 -0.15402,0 0.15402,-1.36475 0,-1.36475 -0.21781,0 -0.26722,1.07702 -0.46204,1.36475 -0.13775,0.20342 -0.30802,0 -0.46203,0 -0.15402,0 -0.30802,0 -0.46204,0 -0.77006,0 -1.54011,0 -2.31018,0 -1.38611,0 -2.77221,0 -4.15832,0 -0.46204,0 -0.92408,0 -1.38611,0 -0.30802,0 -0.62203,0.17842 -0.92407,0 -0.47757,-0.28214 -0.90571,-1.12826 -1.38611,-1.36475 -0.45576,-0.22435 -0.92408,0 -1.38611,0 -1.38611,0 -2.77222,0 -4.15832,0 -0.46204,0 -0.93788,0.33099 -1.38612,0 -0.2113,-0.1561 -0.2554,-1.16129 -0.46203,-1.36473 -0.29222,-0.28772 -0.61605,0 -0.92407,0 -0.30802,0 -0.61605,0 -0.92408,0 -0.92407,0 -1.84814,0 -2.77222,0 -1.84814,0 -3.69628,0 -5.54443,0 -0.35273,0 -2.48111,-0.28663 -2.77221,0 -0.32671,0.32167 -0.58998,1.11801 -0.92408,1.36473 -0.35136,0.25945 -1.92327,0 -2.31018,0 -2.00215,0 -4.00431,0 -6.00647,0 -0.33834,0 -2.31328,-0.27111 -2.77221,0 -0.47758,0.28212 -0.90854,1.08261 -1.38612,1.36475 -0.30204,0.17842 -0.61604,0 -0.92407,0 -0.92407,0 -1.84815,0 -2.77221,0 -0.61605,0 -1.2321,0 -1.84815,0 -0.30803,0 -0.61605,0 -0.92407,0 -0.15401,0 -0.32428,-0.20346 -0.46203,0 -0.19482,0.28769 -0.26723,1.07701 -0.46204,1.36472 -0.13775,0.20345 -0.30802,0 -0.46204,0 -0.15401,0 -0.30802,0 -0.46203,0 -1.2321,0 -2.46419,0 -3.6963,0 -0.31904,0 -1.70767,-0.20747 -1.84814,0 -0.19481,0.28771 -0.26722,1.07702 -0.46203,1.36474 -0.1832,0.27056 -1.29165,-0.279 -1.38611,0 -0.10891,0.32168 0.1089,1.04306 0,1.36473 -0.0369,0.1089 -0.73942,-0.0909 -0.92407,0 -0.77463,0.38135 -1.54013,0.90983 -2.31019,1.36473 z"
       id="path2987-25-7-6-8-4"
       inkscape:connector-curvature="0" />
    <path
       style="fill:none;stroke:#ffffff;stroke-width:2.9226048;stroke-linecap:butt;stroke-linejoin:miter;stroke-miterlimit:4;stroke-dasharray:none;stroke-opacity:1"
       d="m 350.33538,522.34416 c -5.20347,0 -10.40693,0 -15.61042,0 -0.47304,0 -0.97035,-0.32371 -1.41912,0 -10.27933,7.41454 2.23741,-0.88534 -4.25738,6.14175 -0.4231,0.45778 -0.99603,-0.45778 -1.41913,0 -0.59836,0.64741 -0.78448,2.61309 -1.41913,3.07087 -0.89754,0.64741 -1.94072,-0.64739 -2.83826,0 -0.63465,0.45779 -0.94609,2.04726 -1.41913,3.07088 -0.47304,1.02363 -1.04804,1.86639 -1.41912,3.0709 -4.42157,14.35185 2.77899,-3.6783 -4.25739,15.35437 -0.83582,2.26081 -2.09608,3.73276 -2.83825,6.14177 -0.2624,0.8517 0.14958,2.09977 0,3.07088 -0.3345,2.17142 -1.16259,3.92119 -1.41913,6.14174 -0.34419,2.9792 0,6.14175 0,9.21263 0,7.1654 0,14.33076 0,21.49614 0,18.42527 0,36.85054 0,55.27581 0,10.23624 0,20.47251 0,30.70875 0,2.88301 0.27104,13.59482 0,15.3544 -0.21156,1.37335 -0.94609,2.04726 -1.41913,3.07087 -4.70666,10.18483 0.66898,-2.89524 -1.41913,6.14178 -0.29917,1.29477 -1.11996,1.77608 -1.41913,3.07087 -0.21154,0.91555 0.3345,2.34706 0,3.07087 -0.66898,1.44761 -1.99205,-0.91556 -2.83826,0 -0.59835,0.6474 -0.82076,2.42348 -1.41913,3.07088 -0.42309,0.45778 -0.97035,-0.32371 -1.41911,0 -1.00348,0.72382 -1.81209,2.51574 -2.83826,3.07087 -0.91784,0.49654 -1.94073,-0.64739 -2.83827,0 -0.63464,0.45778 -0.82076,2.42348 -1.41912,3.07088 -0.31806,0.34416 -5.33928,0 -5.67651,0 -0.47304,0 -0.97036,-0.32369 -1.41913,0 -4.89205,3.52865 -1.05124,3.07087 -4.25738,3.07087 -0.47304,0 -0.94609,0 -1.41913,0 -0.47304,0 -1.08465,0.72382 -1.41913,0 -0.33449,-0.72379 -0.47304,-3.07087 0,-3.07087 0.47304,0 -0.47304,3.07087 0,3.07087 0.45758,0 2.04974,-5.28861 2.83826,-6.14175 0.4231,-0.45778 0.97035,0.32371 1.41912,0 1.00347,-0.72382 1.83479,-2.34705 2.83826,-3.07087 0.55221,-0.39832 4.03715,0.47657 4.25738,0 0.3345,-0.72382 -0.33449,-2.34706 0,-3.07088 0.3345,-0.72381 0.94609,0 1.41913,0 0.47304,0 0.94609,0 1.41913,0 1.41912,0 2.88063,-0.74479 4.25739,0 1.02617,0.55515 1.83478,2.34706 2.83826,3.07088 0.44876,0.32368 0.99602,-0.45778 1.41911,0 0.59837,0.64739 0.82078,2.42348 1.41913,3.07087 0.42311,0.45778 1.08465,-0.72382 1.41913,0 0.3345,0.72382 -0.33448,2.34706 0,3.07088 2.93623,6.35377 -0.11478,-9.70938 2.83826,3.07087 0.21155,0.91556 -0.21154,2.15534 0,3.0709 3.24739,14.05419 -0.58819,-13.03103 2.83826,9.21262 0.14958,0.9711 -0.21156,2.15531 0,3.07088 0.29918,1.2948 1.11994,1.77608 1.41913,3.07087 0.2566,1.11053 0,13.21847 0,15.3544 0,2.13591 0.2566,14.24386 0,15.35439 -0.29919,1.29479 -1.11995,1.77607 -1.41913,3.07088 -0.21156,0.91556 0.21155,2.15531 0,3.07087 -0.29918,1.29479 -1.11995,1.77607 -1.41913,3.07087 -0.21155,0.91556 0.21155,2.15532 0,3.07088 -0.29917,1.29479 -1.11995,1.77609 -1.41913,3.07087 -0.56764,2.45671 0.56764,6.75593 0,9.21265 -0.29917,1.29479 -1.11996,1.77607 -1.41913,3.07087 -0.0371,0.16058 -0.0371,9.05198 0,9.21263 0.29917,1.29479 1.11996,1.77609 1.41913,3.07088 0.21155,0.91555 -0.33449,2.34706 0,3.07088 0.33449,0.7238 1.08464,-0.72382 1.41913,0 0.33448,0.7238 -0.33449,2.34705 0,3.07087 0.33448,0.72382 1.08464,-0.72382 1.41913,0 0.33449,0.72382 -0.33449,2.34706 0,3.07087 0.33449,0.72382 1.08463,-0.72381 1.41913,0 0.33449,0.72382 -0.3345,2.34706 0,3.07089 0.66899,1.44764 2.16927,-1.44762 2.83825,0 0.33449,0.72382 -0.33449,2.34706 0,3.07087 0.34148,0.73895 5.33503,-0.73895 5.67651,0 0.3345,0.72382 -0.33449,2.34707 0,3.07088 0.3345,0.72382 0.94609,0 1.41913,0 0.47304,0 0.94609,0 1.41913,0 2.83826,0 5.67652,0 8.51477,0 0.47305,0 1.08463,-0.72381 1.41912,0 0.3345,0.72382 0,2.04724 0,3.07089"
       id="path4284"
       inkscape:connector-curvature="0" />
    <path
       style="fill:none;stroke:#ffffff;stroke-width:1.11231542;stroke-linecap:butt;stroke-linejoin:miter;stroke-miterlimit:4;stroke-dasharray:none;stroke-opacity:1"
       d="m 437.53486,698.18422 c 0,-8.0598 0,-16.11959 0,-24.17938 0,-5.83639 0,-11.67279 0,-17.5092 0,-1.38962 0,-2.77924 0,-4.16885 0,-1.1117 -0.1267,-2.24498 0,-3.33509 0.0448,-0.38541 0.42914,-0.45247 0.48454,-0.83377 0.10788,-0.74253 0,-4.72918 0,-5.83639 0,-0.27793 0,-0.55586 0,-0.83378 0,-0.27793 -0.14446,-0.70948 0,-0.83377 0.28893,-0.24859 0.64606,0 0.96909,0 1.07697,0 2.36053,0.25351 3.39181,0 0.50562,-0.1243 0.946,-0.73673 1.45363,-0.83377 0.96316,-0.18416 1.93817,0 2.90726,0 0.80757,0 1.61514,0 2.42271,0 3.39181,0 6.78361,0 10.17542,0 2.58422,0 5.16846,0 7.75269,0 1.29211,0 2.58423,0 3.87635,0 0.32303,0 0.65233,0.10901 0.96908,0 3.44423,-1.18532 -0.79977,-0.83378 3.39181,-0.83378 2.2612,0 4.5224,0 6.78361,0 0.80757,0 1.61514,0 2.42271,0 0.32303,0 0.65234,0.10902 0.96909,0 0.50084,-0.17236 0.94983,-0.68928 1.45363,-0.83377 0.79659,-0.22845 1.61514,0 2.42272,0 1.29212,0 2.58423,0 3.87635,0 2.74574,0 5.49149,0 8.23723,0 0.48455,0 0.96909,0 1.45364,0 0.16151,0 0.37033,-0.19652 0.48454,0 0.22841,0.39304 -0.10215,1.14022 0,1.66755 1.37264,4.72388 -0.18058,-1.24292 0.48454,3.33509 0.0876,0.6029 0.39695,1.06464 0.48454,1.66753 0.0953,0.65586 0,4.13557 0,5.00264 0,0.27792 -0.0392,0.56414 0,0.83377 0.12388,0.85263 0.40058,1.63439 0.48455,2.50131 0.0797,0.82242 0,1.66754 0,2.50131 0,2.22339 0,4.44679 0,6.67018 0,4.7247 0,9.4494 0,14.17411 0,4.7247 0,9.44941 0,14.17411 0,1.1117 0,2.22339 0,3.33509 0,0.27792 0.16151,0.83378 0,0.83378 -0.16152,0 0.16151,-0.83378 0,-0.83378 -0.22842,0 -0.28024,0.658 -0.48455,0.83378 -0.14446,0.12428 -0.32302,0 -0.48454,0 -0.16151,0 -0.32303,0 -0.48454,0 -0.80758,0 -1.61515,0 -2.42272,0 -1.45363,0 -2.90726,0 -4.36089,0 -0.48454,0 -0.96909,0 -1.45363,0 -0.32303,0 -0.65233,0.10901 -0.96909,0 -0.50083,-0.17237 -0.94982,-0.6893 -1.45363,-0.83378 -0.47795,-0.13706 -0.96909,0 -1.45363,0 -1.45363,0 -2.90726,0 -4.36089,0 -0.48454,0 -0.98355,0.20222 -1.45363,0 -0.22159,-0.0954 -0.26785,-0.70948 -0.48454,-0.83377 -0.30645,-0.17578 -0.64606,0 -0.96909,0 -0.32303,0 -0.64606,0 -0.96909,0 -0.96908,0 -1.93817,0 -2.90726,0 -1.93817,0 -3.87634,0 -5.81452,0 -0.36991,0 -2.60197,-0.17511 -2.90726,0 -0.34262,0.19653 -0.61871,0.68304 -0.96909,0.83377 -0.36848,0.15851 -2.01696,0 -2.42271,0 -2.09969,0 -4.19938,0 -6.29907,0 -0.35482,0 -2.42597,-0.16563 -2.90726,0 -0.50083,0.17236 -0.95279,0.66141 -1.45363,0.83378 -0.31675,0.10901 -0.64606,0 -0.96908,0 -0.96909,0 -1.93818,0 -2.90727,0 -0.64605,0 -1.29211,0 -1.93817,0 -0.32303,0 -0.64606,0 -0.96909,0 -0.16151,0 -0.34008,-0.1243 -0.48454,0 -0.2043,0.17576 -0.28024,0.65799 -0.48454,0.83377 -0.14447,0.12429 -0.32303,0 -0.48455,0 -0.16151,0 -0.32302,0 -0.48454,0 -1.29212,0 -2.58423,0 -3.87635,0 -0.33459,0 -1.79085,-0.12676 -1.93817,0 -0.2043,0.17577 -0.28024,0.65799 -0.48454,0.83377 -0.19212,0.16529 -1.35457,-0.17045 -1.45364,0 -0.1142,0.19652 0.11421,0.63724 0,0.83377 -0.0387,0.0665 -0.77543,-0.0555 -0.96908,0 -0.81236,0.23298 -1.61515,0.55585 -2.42272,0.83377 z"
       id="path2987-25-7-5-7-5"
       inkscape:connector-curvature="0" />
    <path
       style="fill:none;stroke:#ffffff;stroke-width:1.11231542;stroke-linecap:butt;stroke-linejoin:miter;stroke-miterlimit:4;stroke-dasharray:none;stroke-opacity:1"
       d="m 359.75312,698.18423 c 0,-8.0598 0,-16.11959 0,-24.17938 0,-5.83639 0,-11.67279 0,-17.5092 0,-1.38962 0,-2.77924 0,-4.16885 0,-1.1117 -0.1267,-2.24498 0,-3.33509 0.0448,-0.38541 0.42914,-0.45247 0.48454,-0.83377 0.10788,-0.74253 0,-4.72918 0,-5.83639 0,-0.27793 0,-0.55586 0,-0.83378 0,-0.27793 -0.14446,-0.70948 0,-0.83377 0.28893,-0.24859 0.64606,0 0.96909,0 1.07697,0 2.36053,0.25351 3.39181,0 0.50562,-0.1243 0.946,-0.73673 1.45363,-0.83377 0.96316,-0.18416 1.93817,0 2.90726,0 0.80757,0 1.61514,0 2.42271,0 3.39181,0 6.78361,0 10.17542,0 2.58422,0 5.16846,0 7.75269,0 1.29211,0 2.58423,0 3.87635,0 0.32303,0 0.65233,0.10901 0.96908,0 3.44423,-1.18532 -0.79977,-0.83378 3.39181,-0.83378 2.2612,0 4.5224,0 6.78361,0 0.80757,0 1.61514,0 2.42271,0 0.32303,0 0.65234,0.10902 0.96909,0 0.50084,-0.17236 0.94983,-0.68928 1.45363,-0.83377 0.79659,-0.22845 1.61514,0 2.42272,0 1.29212,0 2.58423,0 3.87635,0 2.74574,0 5.49149,0 8.23723,0 0.48455,0 0.96909,0 1.45364,0 0.16151,0 0.37033,-0.19652 0.48454,0 0.22841,0.39304 -0.10215,1.14022 0,1.66755 1.37264,4.72388 -0.18058,-1.24292 0.48454,3.33509 0.0876,0.6029 0.39695,1.06464 0.48454,1.66753 0.0953,0.65586 0,4.13557 0,5.00264 0,0.27792 -0.0392,0.56414 0,0.83377 0.12388,0.85263 0.40058,1.63439 0.48455,2.50131 0.0797,0.82242 0,1.66754 0,2.50131 0,2.22339 0,4.44679 0,6.67018 0,4.7247 0,9.4494 0,14.17411 0,4.7247 0,9.44941 0,14.17411 0,1.1117 0,2.22339 0,3.33509 0,0.27792 0.16151,0.83378 0,0.83378 -0.16152,0 0.16151,-0.83378 0,-0.83378 -0.22842,0 -0.28024,0.658 -0.48455,0.83378 -0.14446,0.12428 -0.32302,0 -0.48454,0 -0.16151,0 -0.32303,0 -0.48454,0 -0.80758,0 -1.61515,0 -2.42272,0 -1.45363,0 -2.90726,0 -4.36089,0 -0.48454,0 -0.96909,0 -1.45363,0 -0.32303,0 -0.65233,0.10901 -0.96909,0 -0.50083,-0.17237 -0.94982,-0.6893 -1.45363,-0.83378 -0.47795,-0.13706 -0.96909,0 -1.45363,0 -1.45363,0 -2.90726,0 -4.36089,0 -0.48454,0 -0.98355,0.20222 -1.45363,0 -0.22159,-0.0954 -0.26785,-0.70948 -0.48454,-0.83377 -0.30645,-0.17578 -0.64606,0 -0.96909,0 -0.32303,0 -0.64606,0 -0.96909,0 -0.96908,0 -1.93817,0 -2.90726,0 -1.93817,0 -3.87634,0 -5.81452,0 -0.36991,0 -2.60197,-0.17511 -2.90726,0 -0.34262,0.19653 -0.61871,0.68304 -0.96909,0.83377 -0.36848,0.15851 -2.01696,0 -2.42271,0 -2.09969,0 -4.19938,0 -6.29907,0 -0.35482,0 -2.42597,-0.16563 -2.90726,0 -0.50083,0.17236 -0.95279,0.66141 -1.45363,0.83378 -0.31675,0.10901 -0.64606,0 -0.96908,0 -0.96909,0 -1.93818,0 -2.90727,0 -0.64605,0 -1.29211,0 -1.93817,0 -0.32303,0 -0.64606,0 -0.96909,0 -0.16151,0 -0.34008,-0.1243 -0.48454,0 -0.2043,0.17576 -0.28024,0.65799 -0.48454,0.83377 -0.14447,0.12429 -0.32303,0 -0.48455,0 -0.16151,0 -0.32302,0 -0.48454,0 -1.29212,0 -2.58423,0 -3.87635,0 -0.33459,0 -1.79085,-0.12676 -1.93817,0 -0.2043,0.17577 -0.28024,0.65799 -0.48454,0.83377 -0.19212,0.16529 -1.35457,-0.17045 -1.45364,0 -0.1142,0.19652 0.11421,0.63724 0,0.83377 -0.0387,0.0665 -0.77543,-0.0555 -0.96908,0 -0.81236,0.23298 -1.61515,0.55585 -2.42272,0.83377 z"
       id="path2987-25-7-5-7-5-99"
       inkscape:connector-curvature="0" />
    <path
       style="fill:none;stroke:#ffffff;stroke-width:1.67878795;stroke-linecap:butt;stroke-linejoin:miter;stroke-miterlimit:4;stroke-dasharray:none;stroke-opacity:1"
       d="m 601.80133,918.7477 c 4.03204,0 8.06406,0 12.09609,0 0.36656,0 0.75191,0.1378 1.09965,0 7.96518,-3.1572 -1.73371,0.377 3.29893,-2.6153 0.32785,-0.1949 0.7718,0.195 1.09965,0 0.46364,-0.2756 0.60787,-1.1127 1.09965,-1.3076 0.69548,-0.2757 1.5038,0.2757 2.19928,0 0.49178,-0.1949 0.73309,-0.8717 1.09965,-1.3076 0.36655,-0.4359 0.8121,-0.7948 1.09964,-1.3076 3.42615,-6.1113 -2.15337,1.5662 3.29894,-6.53817 0.64765,-0.96269 1.6242,-1.58947 2.19928,-2.61526 0.20333,-0.36266 -0.1159,-0.89411 0,-1.30762 0.2592,-0.92463 0.90085,-1.66971 1.09965,-2.61525 0.2667,-1.26859 0,-2.61525 0,-3.92287 0,-3.05114 0,-6.10226 0,-9.15338 0,-7.84576 0,-15.69151 0,-23.53726 0,-4.35875 0,-8.71751 0,-13.07626 0,-1.22762 -0.21003,-5.78887 0,-6.53813 0.16392,-0.58478 0.73309,-0.87175 1.09964,-1.30762 3.64707,-4.33685 -0.51837,1.23285 1.09965,-2.61526 0.23182,-0.55134 0.86782,-0.75627 1.09964,-1.30762 0.16392,-0.38985 -0.25918,-0.99941 0,-1.30763 0.51837,-0.61641 1.54359,0.38986 2.19929,0 0.46366,-0.27567 0.63599,-1.03195 1.09964,-1.30762 0.32785,-0.19493 0.75191,0.13784 1.09965,0 0.77756,-0.30821 1.40413,-1.07124 2.19929,-1.30762 0.71121,-0.21144 1.50381,0.27567 2.19929,0 0.49177,-0.19493 0.63599,-1.03195 1.09964,-1.30763 0.24646,-0.14654 4.13727,0 4.39858,0 0.36654,0 0.7519,0.13784 1.09964,0 3.79071,-1.50255 0.81457,-1.30762 3.29894,-1.30762 0.36654,0 0.73309,0 1.09964,0 0.36655,0 0.84046,-0.30822 1.09964,0 0.2592,0.3082 0.36655,1.30762 0,1.30762 -0.36654,0 0.36655,-1.30762 0,-1.30762 -0.35457,0 -1.58828,2.25197 -2.19928,2.61525 -0.32785,0.19493 -0.75192,-0.13784 -1.09965,0 -0.77756,0.30821 -1.42172,0.99941 -2.19929,1.30762 -0.42789,0.16962 -3.12828,-0.20293 -3.29893,0 -0.25919,0.30821 0.25919,0.99941 0,1.30762 -0.25919,0.30822 -0.7331,0 -1.09965,0 -0.36654,0 -0.73309,0 -1.09964,0 -1.09964,0 -2.23212,0.31716 -3.29893,0 -0.79516,-0.23638 -1.42173,-0.99941 -2.19929,-1.30762 -0.34774,-0.13783 -0.7718,0.19493 -1.09965,0 -0.46365,-0.27567 -0.63598,-1.03195 -1.09964,-1.30762 -0.32785,-0.19493 -0.84046,0.30821 -1.09964,0 -0.2592,-0.30822 0.25918,-0.99941 0,-1.30763 -2.27521,-2.70553 0.089,4.1344 -2.19929,-1.30762 -0.16393,-0.38986 0.16391,-0.91778 0,-1.30764 -2.51632,-5.98448 0.45577,5.54881 -2.19929,-3.92287 -0.11592,-0.4135 0.16392,-0.91776 0,-1.30762 -0.23183,-0.55135 -0.86782,-0.75628 -1.09965,-1.30763 -0.19883,-0.47287 0,-5.62862 0,-6.53813 0,-0.9095 -0.19883,-6.06524 0,-6.53813 0.23183,-0.55133 0.86782,-0.75627 1.09965,-1.30762 0.16392,-0.38986 -0.16393,-0.91776 0,-1.30763 0.23182,-0.55133 0.86782,-0.75627 1.09964,-1.30762 0.16393,-0.38986 -0.16393,-0.91776 0,-1.30762 0.23183,-0.55134 0.86782,-0.75629 1.09965,-1.30763 0.43985,-1.0461 -0.43986,-2.87678 0,-3.92288 0.23182,-0.55134 0.86782,-0.75628 1.09964,-1.30762 0.0288,-0.0684 0.0288,-3.85446 0,-3.92284 -0.23182,-0.55139 -0.86782,-0.75634 -1.09964,-1.30765 -0.16393,-0.38984 0.25918,-0.99945 0,-1.30765 -0.25919,-0.3082 -0.84046,0.3082 -1.09965,0 -0.25918,-0.3082 0.25919,-0.99936 0,-1.30765 -0.25918,-0.30819 -0.84045,0.30829 -1.09964,0 -0.25919,-0.30819 0.25919,-0.99937 0,-1.30756 -0.25919,-0.30829 -0.84045,0.30819 -1.09965,0 -0.25919,-0.30829 0.2592,-0.99946 0,-1.30766 -0.51838,-0.61638 -1.68091,0.6164 -2.19928,0 -0.2592,-0.30819 0.25918,-0.99945 0,-1.30764 -0.26461,-0.31461 -4.13398,0.31469 -4.39858,0 -0.2592,-0.30819 0.25918,-0.99941 0,-1.30762 -0.2592,-0.30821 -0.7331,0 -1.09965,0 -0.36654,0 -0.73309,0 -1.09965,0 -2.19928,0 -4.39857,0 -6.59786,0 -0.36654,0 -0.84045,0.30821 -1.09965,0 -0.25918,-0.30821 0,-0.87177 0,-1.30765"
       id="path4284-5"
       inkscape:connector-curvature="0" />
    <text
       xml:space="preserve"
       style="font-style:normal;font-weight:normal;font-size:22px;line-height:125%;font-family:Sans;letter-spacing:0px;word-spacing:0px;fill:#ffffff;fill-opacity:1;stroke:none"
       x="691.26941"
       y="911.45538"
       id="text3137-1"
       sodipodi:linespacing="125%"
       inkscape:transform-center-x="8.0812204"
       inkscape:transform-center-y="-39.395949"><tspan
         sodipodi:role="line"
         id="tspan3139-0"
         x="691.26941"
         y="911.45538">Partitions</tspan></text>
    <flowRoot
       xml:space="preserve"
       id="flowRoot3449"
       style="fill:black;stroke:none;stroke-opacity:1;stroke-width:1px;stroke-linejoin:miter;stroke-linecap:butt;fill-opacity:1;font-family:sans-serif;font-style:normal;font-weight:normal;font-size:40px;line-height:125%;letter-spacing:0px;word-spacing:0px"><flowRegion
         id="flowRegion3451"><rect
           id="rect3453"
           width="10.101525"
           height="43.436558"
           x="685.89355"
           y="608.73407" /></flowRegion><flowPara
         id="flowPara3455"></flowPara></flowRoot>    <path
       style="fill:none;stroke:#ffffff;stroke-width:0.94388169;stroke-linecap:butt;stroke-linejoin:miter;stroke-miterlimit:4;stroke-dasharray:none;stroke-opacity:1"
       d="m 363.70049,921.4067 c 0,-8.0846 0,-16.16919 0,-24.25379 0,-5.85435 0,-11.70872 0,-17.56309 0,-1.3939 0,-2.7878 0,-4.18169 0,-1.11512 -0.091,-2.25189 0,-3.34535 0.0322,-0.3866 0.30807,-0.45387 0.34784,-0.83634 0.0774,-0.74481 0,-4.74374 0,-5.85435 0,-0.27879 0,-0.55758 0,-0.83635 0,-0.27879 -0.1037,-0.71166 0,-0.83634 0.20741,-0.24935 0.46379,0 0.69568,0 0.77312,0 1.69455,0.25429 2.43487,0 0.36297,-0.12468 0.6791,-0.739 1.04351,-0.83633 0.69142,-0.18473 1.39135,0 2.08703,0 0.57973,0 1.15946,0 1.73919,0 2.43487,0 4.86973,0 7.3046,0 1.85513,0 3.71027,0 5.56541,0 0.92756,0 1.85513,0 2.78271,0 0.23189,0 0.46828,0.10934 0.69567,0 2.4725,-1.18897 -0.57413,-0.83635 2.43487,-0.83635 1.62324,0 3.24648,0 4.86973,0 0.57973,0 1.15946,0 1.73919,0 0.23189,0 0.46829,0.10936 0.69568,0 0.35953,-0.17289 0.68185,-0.6914 1.04351,-0.83634 0.57185,-0.22915 1.15946,0 1.73919,0 0.92757,0 1.85514,0 2.78271,0 1.97108,0 3.94216,0 5.91324,0 0.34784,0 0.69568,0 1.04352,0 0.11595,0 0.26585,-0.19712 0.34784,0 0.16397,0.39425 -0.0733,1.14373 0,1.67269 0.98537,4.73842 -0.12963,-1.24675 0.34783,3.34535 0.0629,0.60476 0.28496,1.06792 0.34784,1.67266 0.0684,0.65788 0,4.1483 0,5.01804 0,0.27878 -0.0281,0.56588 0,0.83634 0.0889,0.85525 0.28756,1.63942 0.34784,2.50901 0.0572,0.82495 0,1.67267 0,2.50901 0,2.23023 0,4.46048 0,6.69071 0,4.73924 0,9.47849 0,14.21774 0,4.73924 0,9.47847 0,14.21777 0,1.1151 0,2.2302 0,3.3453 0,0.2788 0.11595,0.8364 0,0.8364 -0.11595,0 0.11595,-0.8364 0,-0.8364 -0.16397,0 -0.20117,0.66 -0.34784,0.8364 -0.1037,0.1246 -0.23189,0 -0.34784,0 -0.11594,0 -0.23189,0 -0.34783,0 -0.57974,0 -1.15947,0 -1.73919,0 -1.04352,0 -2.08703,0 -3.13055,0 -0.34783,0 -0.69567,0 -1.04351,0 -0.23189,0 -0.46829,0.1093 -0.69568,0 -0.35953,-0.1729 -0.68184,-0.6915 -1.04351,-0.8364 -0.34311,-0.1375 -0.69568,0 -1.04352,0 -1.04351,0 -2.08703,0 -3.13054,0 -0.34783,0 -0.70606,0.2029 -1.04351,0 -0.15908,-0.096 -0.19228,-0.7116 -0.34784,-0.8363 -0.21999,-0.1763 -0.46378,0 -0.69568,0 -0.23189,0 -0.46378,0 -0.69568,0 -0.69567,0 -1.39135,0 -2.08702,0 -1.39135,0 -2.7827,0 -4.17406,0 -0.26555,0 -1.86787,-0.1757 -2.08703,0 -0.24595,0.1971 -0.44415,0.6851 -0.69568,0.8363 -0.26452,0.159 -1.44791,0 -1.73918,0 -1.5073,0 -3.0146,0 -4.5219,0 -0.25472,0 -1.74153,-0.1661 -2.08703,0 -0.35953,0.1729 -0.68398,0.6635 -1.04351,0.8364 -0.22739,0.1093 -0.46379,0 -0.69568,0 -0.69567,0 -1.39135,0 -2.08703,0 -0.46378,0 -0.92756,0 -1.39135,0 -0.23189,0 -0.46379,0 -0.69568,0 -0.11594,0 -0.24413,-0.1247 -0.34783,0 -0.14666,0.1763 -0.20118,0.66 -0.34784,0.8363 -0.10371,0.1247 -0.23189,0 -0.34784,0 -0.11595,0 -0.23189,0 -0.34784,0 -0.92757,0 -1.85513,0 -2.78271,0 -0.24019,0 -1.28559,-0.1271 -1.39135,0 -0.14666,0.1763 -0.20117,0.66 -0.34783,0.8363 -0.13792,0.1658 -0.9724,-0.1709 -1.04352,0 -0.082,0.1972 0.082,0.6392 0,0.8364 -0.0278,0.067 -0.55666,-0.056 -0.69567,0 -0.58317,0.2337 -1.15947,0.5575 -1.7392,0.8363 z"
       id="path2987-25-7-5-7-5-99-2"
       inkscape:connector-curvature="0" />
    <path
       style="fill:none;stroke:#ffffff;stroke-width:0.94388169;stroke-linecap:butt;stroke-linejoin:miter;stroke-miterlimit:4;stroke-dasharray:none;stroke-opacity:1"
       d="m 484.58211,921.4067 c 0,-8.0846 0,-16.1692 0,-24.2538 0,-5.85435 0,-11.70872 0,-17.56309 0,-1.3939 0,-2.7878 0,-4.18169 0,-1.11512 -0.091,-2.25189 0,-3.34535 0.0322,-0.3866 0.30807,-0.45387 0.34784,-0.83634 0.0774,-0.7448 0,-4.74373 0,-5.85434 0,-0.27879 0,-0.55758 0,-0.83635 0,-0.27879 -0.1037,-0.71166 0,-0.83634 0.20741,-0.24935 0.46379,0 0.69568,0 0.77312,0 1.69455,0.25429 2.43487,0 0.36297,-0.12468 0.6791,-0.739 1.04351,-0.83633 0.69142,-0.18473 1.39135,0 2.08703,0 0.57973,0 1.15946,0 1.73919,0 2.43487,0 4.86973,0 7.3046,0 1.85513,0 3.71027,0 5.56541,0 0.92756,0 1.85513,0 2.78271,0 0.23189,0 0.46828,0.10934 0.69567,0 2.4725,-1.18897 -0.57413,-0.83635 2.43487,-0.83635 1.62324,0 3.24648,0 4.86973,0 0.57973,0 1.15946,0 1.73919,0 0.23189,0 0.46829,0.10936 0.69568,0 0.35953,-0.17289 0.68185,-0.6914 1.04351,-0.83634 0.57185,-0.22915 1.15946,0 1.73919,0 0.92757,0 1.85514,0 2.78271,0 1.97108,0 3.94216,0 5.91324,0 0.34784,0 0.69568,0 1.04352,0 0.11595,0 0.26585,-0.19712 0.34784,0 0.16397,0.39425 -0.0733,1.14373 0,1.67269 0.98537,4.73842 -0.12963,-1.24675 0.34783,3.34535 0.0629,0.60476 0.28496,1.06792 0.34784,1.67266 0.0684,0.65788 0,4.14829 0,5.01803 0,0.27878 -0.0281,0.56588 0,0.83634 0.0889,0.85525 0.28756,1.63942 0.34784,2.50901 0.0572,0.82495 0,1.67267 0,2.50901 0,2.23023 0,4.46048 0,6.69071 0,4.73924 0,9.47849 0,14.21774 0,4.73924 0,9.47848 0,14.21778 0,1.1151 0,2.2302 0,3.3453 0,0.2788 0.11595,0.8364 0,0.8364 -0.11595,0 0.11595,-0.8364 0,-0.8364 -0.16397,0 -0.20117,0.66 -0.34784,0.8364 -0.1037,0.1246 -0.23189,0 -0.34784,0 -0.11594,0 -0.23189,0 -0.34783,0 -0.57974,0 -1.15947,0 -1.73919,0 -1.04352,0 -2.08703,0 -3.13055,0 -0.34783,0 -0.69567,0 -1.04351,0 -0.23189,0 -0.46829,0.1093 -0.69568,0 -0.35953,-0.1729 -0.68184,-0.6915 -1.04351,-0.8364 -0.34311,-0.1375 -0.69568,0 -1.04352,0 -1.04351,0 -2.08703,0 -3.13054,0 -0.34783,0 -0.70606,0.2029 -1.04351,0 -0.15908,-0.096 -0.19228,-0.7117 -0.34784,-0.8363 -0.21999,-0.1763 -0.46378,0 -0.69568,0 -0.23189,0 -0.46378,0 -0.69568,0 -0.69567,0 -1.39135,0 -2.08702,0 -1.39135,0 -2.7827,0 -4.17406,0 -0.26555,0 -1.86787,-0.1757 -2.08703,0 -0.24595,0.1971 -0.44415,0.6851 -0.69568,0.8363 -0.26452,0.159 -1.44791,0 -1.73918,0 -1.5073,0 -3.0146,0 -4.5219,0 -0.25472,0 -1.74153,-0.1661 -2.08703,0 -0.35953,0.1729 -0.68398,0.6635 -1.04351,0.8364 -0.22739,0.1093 -0.46379,0 -0.69568,0 -0.69567,0 -1.39135,0 -2.08703,0 -0.46378,0 -0.92756,0 -1.39135,0 -0.23189,0 -0.46379,0 -0.69568,0 -0.11594,0 -0.24413,-0.1247 -0.34783,0 -0.14666,0.1763 -0.20118,0.66 -0.34784,0.8363 -0.10371,0.1247 -0.23189,0 -0.34784,0 -0.11595,0 -0.23189,0 -0.34784,0 -0.92757,0 -1.85513,0 -2.78271,0 -0.24019,0 -1.28559,-0.1272 -1.39135,0 -0.14666,0.1763 -0.20117,0.66 -0.34783,0.8363 -0.13792,0.1658 -0.9724,-0.1709 -1.04352,0 -0.082,0.1972 0.082,0.6392 0,0.8364 -0.0278,0.067 -0.55666,-0.056 -0.69567,0 -0.58317,0.2337 -1.15947,0.5575 -1.7392,0.8363 z"
       id="path2987-25-7-5-7-5-99-2-3"
       inkscape:connector-curvature="0" />
    <path
       style="fill:none;stroke:#ffffff;stroke-width:0.94388169;stroke-linecap:butt;stroke-linejoin:miter;stroke-miterlimit:4;stroke-dasharray:none;stroke-opacity:1"
       d="m 424.14126,921.4067 c 0,-8.0846 0,-16.1692 0,-24.2538 0,-5.85435 0,-11.70872 0,-17.56309 0,-1.3939 0,-2.7878 0,-4.18169 0,-1.11512 -0.091,-2.25189 0,-3.34535 0.0322,-0.3866 0.30807,-0.45387 0.34784,-0.83634 0.0774,-0.7448 0,-4.74373 0,-5.85434 0,-0.27879 0,-0.55758 0,-0.83635 0,-0.27879 -0.1037,-0.71166 0,-0.83634 0.20741,-0.24935 0.46379,0 0.69568,0 0.77312,0 1.69455,0.25429 2.43487,0 0.36297,-0.12468 0.6791,-0.739 1.04351,-0.83633 0.69142,-0.18473 1.39135,0 2.08703,0 0.57973,0 1.15946,0 1.73919,0 2.43487,0 4.86973,0 7.3046,0 1.85513,0 3.71027,0 5.56541,0 0.92756,0 1.85513,0 2.78271,0 0.23189,0 0.46828,0.10934 0.69567,0 2.4725,-1.18897 -0.57413,-0.83635 2.43487,-0.83635 1.62324,0 3.24648,0 4.86973,0 0.57973,0 1.15946,0 1.73919,0 0.23189,0 0.46829,0.10936 0.69568,0 0.35953,-0.17289 0.68185,-0.6914 1.04351,-0.83634 0.57185,-0.22915 1.15946,0 1.73919,0 0.92757,0 1.85514,0 2.78271,0 1.97108,0 3.94216,0 5.91324,0 0.34784,0 0.69568,0 1.04352,0 0.11595,0 0.26585,-0.19712 0.34784,0 0.16397,0.39425 -0.0733,1.14373 0,1.67269 0.98537,4.73842 -0.12963,-1.24675 0.34783,3.34535 0.0629,0.60476 0.28496,1.06792 0.34784,1.67266 0.0684,0.65788 0,4.14829 0,5.01803 0,0.27878 -0.0281,0.56588 0,0.83634 0.0889,0.85525 0.28756,1.63942 0.34784,2.50901 0.0572,0.82495 0,1.67267 0,2.50901 0,2.23023 0,4.46048 0,6.69071 0,4.73924 0,9.47849 0,14.21774 0,4.73924 0,9.47848 0,14.21778 0,1.1151 0,2.2302 0,3.3453 0,0.2788 0.11595,0.8364 0,0.8364 -0.11595,0 0.11595,-0.8364 0,-0.8364 -0.16397,0 -0.20117,0.66 -0.34784,0.8364 -0.1037,0.1246 -0.23189,0 -0.34784,0 -0.11594,0 -0.23189,0 -0.34783,0 -0.57974,0 -1.15947,0 -1.73919,0 -1.04352,0 -2.08703,0 -3.13055,0 -0.34783,0 -0.69567,0 -1.04351,0 -0.23189,0 -0.46829,0.1093 -0.69568,0 -0.35953,-0.1729 -0.68184,-0.6915 -1.04351,-0.8364 -0.34311,-0.1375 -0.69568,0 -1.04352,0 -1.04351,0 -2.08703,0 -3.13054,0 -0.34783,0 -0.70606,0.2029 -1.04351,0 -0.15908,-0.096 -0.19228,-0.7117 -0.34784,-0.8363 -0.21999,-0.1763 -0.46378,0 -0.69568,0 -0.23189,0 -0.46378,0 -0.69568,0 -0.69567,0 -1.39135,0 -2.08702,0 -1.39135,0 -2.7827,0 -4.17406,0 -0.26555,0 -1.86787,-0.1757 -2.08703,0 -0.24595,0.1971 -0.44415,0.6851 -0.69568,0.8363 -0.26452,0.159 -1.44791,0 -1.73918,0 -1.5073,0 -3.0146,0 -4.5219,0 -0.25472,0 -1.74153,-0.1661 -2.08703,0 -0.35953,0.1729 -0.68398,0.6635 -1.04351,0.8364 -0.22739,0.1093 -0.46379,0 -0.69568,0 -0.69567,0 -1.39135,0 -2.08703,0 -0.46378,0 -0.92756,0 -1.39135,0 -0.23189,0 -0.46379,0 -0.69568,0 -0.11594,0 -0.24413,-0.1247 -0.34783,0 -0.14666,0.1763 -0.20118,0.66 -0.34784,0.8363 -0.10371,0.1247 -0.23189,0 -0.34784,0 -0.11595,0 -0.23189,0 -0.34784,0 -0.92757,0 -1.85513,0 -2.78271,0 -0.24019,0 -1.28559,-0.1272 -1.39135,0 -0.14666,0.1763 -0.20117,0.66 -0.34783,0.8363 -0.13792,0.1658 -0.9724,-0.1709 -1.04352,0 -0.082,0.1972 0.082,0.6392 0,0.8364 -0.0278,0.067 -0.55666,-0.056 -0.69567,0 -0.58317,0.2337 -1.15947,0.5575 -1.7392,0.8363 z"
       id="path2987-25-7-5-7-5-99-2-5"
       inkscape:connector-curvature="0" />
    <path
       style="fill:none;stroke:#ffffff;stroke-width:0.94388169;stroke-linecap:butt;stroke-linejoin:miter;stroke-miterlimit:4;stroke-dasharray:none;stroke-opacity:1"
       d="m 545.02289,921.4067 c 0,-8.0846 0,-16.1692 0,-24.2538 0,-5.85435 0,-11.70872 0,-17.56309 0,-1.3939 0,-2.7878 0,-4.18169 0,-1.11512 -0.091,-2.25189 0,-3.34535 0.0322,-0.3866 0.30807,-0.45387 0.34784,-0.83634 0.0774,-0.7448 0,-4.74373 0,-5.85434 0,-0.27879 0,-0.55758 0,-0.83635 0,-0.27879 -0.1037,-0.71166 0,-0.83634 0.20741,-0.24935 0.46379,0 0.69568,0 0.77312,0 1.69455,0.25429 2.43487,0 0.36297,-0.12468 0.6791,-0.739 1.04351,-0.83633 0.69142,-0.18473 1.39135,0 2.08703,0 0.57973,0 1.15946,0 1.73919,0 2.43487,0 4.86973,0 7.3046,0 1.85513,0 3.71027,0 5.56541,0 0.92756,0 1.85513,0 2.78271,0 0.23189,0 0.46828,0.10934 0.69567,0 2.4725,-1.18897 -0.57413,-0.83635 2.43487,-0.83635 1.62324,0 3.24648,0 4.86973,0 0.57973,0 1.15946,0 1.73919,0 0.23189,0 0.46829,0.10936 0.69568,0 0.35953,-0.17289 0.68185,-0.6914 1.04351,-0.83634 0.57185,-0.22915 1.15946,0 1.73919,0 0.92757,0 1.85514,0 2.78271,0 1.97108,0 3.94216,0 5.91324,0 0.34784,0 0.69568,0 1.04352,0 0.11595,0 0.26585,-0.19712 0.34784,0 0.16397,0.39425 -0.0733,1.14373 0,1.67269 0.98537,4.73842 -0.12963,-1.24675 0.34783,3.34535 0.0629,0.60476 0.28496,1.06792 0.34784,1.67266 0.0684,0.65788 0,4.14829 0,5.01803 0,0.27878 -0.0281,0.56588 0,0.83634 0.0889,0.85525 0.28756,1.63942 0.34784,2.50901 0.0572,0.82495 0,1.67267 0,2.50901 0,2.23023 0,4.46048 0,6.69071 0,4.73924 0,9.47849 0,14.21774 0,4.73924 0,9.47848 0,14.21778 0,1.1151 0,2.2302 0,3.3453 0,0.2788 0.11595,0.8364 0,0.8364 -0.11595,0 0.11595,-0.8364 0,-0.8364 -0.16397,0 -0.20117,0.66 -0.34784,0.8364 -0.1037,0.1246 -0.23189,0 -0.34784,0 -0.11594,0 -0.23189,0 -0.34783,0 -0.57974,0 -1.15947,0 -1.73919,0 -1.04352,0 -2.08703,0 -3.13055,0 -0.34783,0 -0.69567,0 -1.04351,0 -0.23189,0 -0.46829,0.1093 -0.69568,0 -0.35953,-0.1729 -0.68184,-0.6915 -1.04351,-0.8364 -0.34311,-0.1375 -0.69568,0 -1.04352,0 -1.04351,0 -2.08703,0 -3.13054,0 -0.34783,0 -0.70606,0.2029 -1.04351,0 -0.15908,-0.096 -0.19228,-0.7117 -0.34784,-0.8363 -0.21999,-0.1763 -0.46378,0 -0.69568,0 -0.23189,0 -0.46378,0 -0.69568,0 -0.69567,0 -1.39135,0 -2.08702,0 -1.39135,0 -2.7827,0 -4.17406,0 -0.26555,0 -1.86787,-0.1757 -2.08703,0 -0.24595,0.1971 -0.44415,0.6851 -0.69568,0.8363 -0.26452,0.159 -1.44791,0 -1.73918,0 -1.5073,0 -3.0146,0 -4.5219,0 -0.25472,0 -1.74153,-0.1661 -2.08703,0 -0.35953,0.1729 -0.68398,0.6635 -1.04351,0.8364 -0.22739,0.1093 -0.46379,0 -0.69568,0 -0.69567,0 -1.39135,0 -2.08703,0 -0.46378,0 -0.92756,0 -1.39135,0 -0.23189,0 -0.46379,0 -0.69568,0 -0.11594,0 -0.24413,-0.1247 -0.34783,0 -0.14666,0.1763 -0.20118,0.66 -0.34784,0.8363 -0.10371,0.1247 -0.23189,0 -0.34784,0 -0.11595,0 -0.23189,0 -0.34784,0 -0.92757,0 -1.85513,0 -2.78271,0 -0.24019,0 -1.28559,-0.1272 -1.39135,0 -0.14666,0.1763 -0.20117,0.66 -0.34783,0.8363 -0.13792,0.1658 -0.9724,-0.1709 -1.04352,0 -0.082,0.1972 0.082,0.6392 0,0.8364 -0.0278,0.067 -0.55666,-0.056 -0.69567,0 -0.58317,0.2337 -1.15947,0.5575 -1.7392,0.8363 z"
       id="path2987-25-7-5-7-5-99-2-6"
       inkscape:connector-curvature="0" />
    <path
       style="fill:none;stroke:#ffffff;stroke-width:0.94388169;stroke-linecap:butt;stroke-linejoin:miter;stroke-miterlimit:4;stroke-dasharray:none;stroke-opacity:1"
       d="m 361.42766,842.92591 c 0,-8.0846 0,-16.1692 0,-24.2538 0,-5.85435 0,-11.70872 0,-17.56309 0,-1.3939 0,-2.7878 0,-4.18169 0,-1.11512 -0.091,-2.25189 0,-3.34535 0.0322,-0.3866 0.30807,-0.45387 0.34784,-0.83634 0.0774,-0.7448 0,-4.74373 0,-5.85434 0,-0.27879 0,-0.55758 0,-0.83635 0,-0.27879 -0.1037,-0.71166 0,-0.83634 0.20741,-0.24935 0.46379,0 0.69568,0 0.77312,0 1.69455,0.25429 2.43487,0 0.36297,-0.12468 0.6791,-0.739 1.04351,-0.83633 0.69142,-0.18473 1.39135,0 2.08703,0 0.57973,0 1.15946,0 1.73919,0 2.43487,0 4.86973,0 7.3046,0 1.85513,0 3.71027,0 5.56541,0 0.92756,0 1.85513,0 2.78271,0 0.23189,0 0.46828,0.10934 0.69567,0 2.4725,-1.18897 -0.57413,-0.83635 2.43487,-0.83635 1.62324,0 3.24648,0 4.86973,0 0.57973,0 1.15946,0 1.73919,0 0.23189,0 0.46829,0.10936 0.69568,0 0.35953,-0.17289 0.68185,-0.6914 1.04351,-0.83634 0.57185,-0.22915 1.15946,0 1.73919,0 0.92757,0 1.85514,0 2.78271,0 1.97108,0 3.94216,0 5.91324,0 0.34784,0 0.69568,0 1.04352,0 0.11595,0 0.26585,-0.19712 0.34784,0 0.16397,0.39425 -0.0733,1.14373 0,1.67269 0.98537,4.73842 -0.12963,-1.24675 0.34783,3.34535 0.0629,0.60476 0.28496,1.06792 0.34784,1.67266 0.0684,0.65788 0,4.14829 0,5.01803 0,0.27878 -0.0281,0.56588 0,0.83634 0.0889,0.85525 0.28756,1.63942 0.34784,2.50901 0.0572,0.82495 0,1.67267 0,2.50901 0,2.23023 0,4.46048 0,6.69071 0,4.73924 0,9.47849 0,14.21774 0,4.73924 0,9.47847 0,14.21778 0,1.1151 0,2.2302 0,3.3453 0,0.2788 0.11595,0.8364 0,0.8364 -0.11595,0 0.11595,-0.8364 0,-0.8364 -0.16397,0 -0.20117,0.66 -0.34784,0.8364 -0.1037,0.1246 -0.23189,0 -0.34784,0 -0.11594,0 -0.23189,0 -0.34783,0 -0.57974,0 -1.15947,0 -1.73919,0 -1.04352,0 -2.08703,0 -3.13055,0 -0.34783,0 -0.69567,0 -1.04351,0 -0.23189,0 -0.46829,0.1093 -0.69568,0 -0.35953,-0.1729 -0.68184,-0.6915 -1.04351,-0.8364 -0.34311,-0.1375 -0.69568,0 -1.04352,0 -1.04351,0 -2.08703,0 -3.13054,0 -0.34783,0 -0.70606,0.2029 -1.04351,0 -0.15908,-0.096 -0.19228,-0.7116 -0.34784,-0.8363 -0.21999,-0.1763 -0.46378,0 -0.69568,0 -0.23189,0 -0.46378,0 -0.69568,0 -0.69567,0 -1.39135,0 -2.08702,0 -1.39135,0 -2.7827,0 -4.17406,0 -0.26555,0 -1.86787,-0.1757 -2.08703,0 -0.24595,0.1971 -0.44415,0.6851 -0.69568,0.8363 -0.26452,0.159 -1.44791,0 -1.73918,0 -1.5073,0 -3.0146,0 -4.5219,0 -0.25472,0 -1.74153,-0.1661 -2.08703,0 -0.35953,0.1729 -0.68398,0.6635 -1.04351,0.8364 -0.22739,0.1093 -0.46379,0 -0.69568,0 -0.69567,0 -1.39135,0 -2.08703,0 -0.46378,0 -0.92756,0 -1.39135,0 -0.23189,0 -0.46379,0 -0.69568,0 -0.11594,0 -0.24413,-0.1247 -0.34783,0 -0.14666,0.1763 -0.20118,0.66 -0.34784,0.8363 -0.10371,0.1247 -0.23189,0 -0.34784,0 -0.11595,0 -0.23189,0 -0.34784,0 -0.92757,0 -1.85513,0 -2.78271,0 -0.24019,0 -1.28559,-0.1271 -1.39135,0 -0.14666,0.1763 -0.20117,0.66 -0.34783,0.8363 -0.13792,0.1658 -0.9724,-0.1709 -1.04352,0 -0.082,0.1972 0.082,0.6392 0,0.8364 -0.0278,0.067 -0.55666,-0.056 -0.69567,0 -0.58317,0.2337 -1.15947,0.5575 -1.7392,0.8363 z"
       id="path2987-25-7-5-7-5-99-2-8"
       inkscape:connector-curvature="0" />
    <path
       style="fill:none;stroke:#ffffff;stroke-width:0.94388169;stroke-linecap:butt;stroke-linejoin:miter;stroke-miterlimit:4;stroke-dasharray:none;stroke-opacity:1"
       d="m 482.30928,842.92591 c 0,-8.0846 0,-16.16921 0,-24.25381 0,-5.85435 0,-11.70872 0,-17.56309 0,-1.3939 0,-2.7878 0,-4.18169 0,-1.11512 -0.091,-2.25189 0,-3.34535 0.0322,-0.3866 0.30807,-0.45387 0.34784,-0.83634 0.0774,-0.74479 0,-4.74372 0,-5.85433 0,-0.27879 0,-0.55758 0,-0.83635 0,-0.27879 -0.1037,-0.71166 0,-0.83634 0.20741,-0.24935 0.46379,0 0.69568,0 0.77312,0 1.69455,0.25429 2.43487,0 0.36297,-0.12468 0.6791,-0.739 1.04351,-0.83633 0.69142,-0.18473 1.39135,0 2.08703,0 0.57973,0 1.15946,0 1.73919,0 2.43487,0 4.86973,0 7.3046,0 1.85513,0 3.71027,0 5.56541,0 0.92756,0 1.85513,0 2.78271,0 0.23189,0 0.46828,0.10934 0.69567,0 2.4725,-1.18897 -0.57413,-0.83635 2.43487,-0.83635 1.62324,0 3.24648,0 4.86973,0 0.57973,0 1.15946,0 1.73919,0 0.23189,0 0.46829,0.10936 0.69568,0 0.35953,-0.17289 0.68185,-0.6914 1.04351,-0.83634 0.57185,-0.22915 1.15946,0 1.73919,0 0.92757,0 1.85514,0 2.78271,0 1.97108,0 3.94216,0 5.91324,0 0.34784,0 0.69568,0 1.04352,0 0.11595,0 0.26585,-0.19712 0.34784,0 0.16397,0.39425 -0.0733,1.14373 0,1.67269 0.98537,4.73842 -0.12963,-1.24675 0.34783,3.34535 0.0629,0.60476 0.28496,1.06792 0.34784,1.67266 0.0684,0.65788 0,4.14828 0,5.01802 0,0.27878 -0.0281,0.56588 0,0.83634 0.0889,0.85525 0.28756,1.63942 0.34784,2.50901 0.0572,0.82495 0,1.67267 0,2.50901 0,2.23023 0,4.46048 0,6.69071 0,4.73924 0,9.47849 0,14.21774 0,4.73924 0,9.47848 0,14.21779 0,1.1151 0,2.2302 0,3.3453 0,0.2788 0.11595,0.8364 0,0.8364 -0.11595,0 0.11595,-0.8364 0,-0.8364 -0.16397,0 -0.20117,0.66 -0.34784,0.8364 -0.1037,0.1246 -0.23189,0 -0.34784,0 -0.11594,0 -0.23189,0 -0.34783,0 -0.57974,0 -1.15947,0 -1.73919,0 -1.04352,0 -2.08703,0 -3.13055,0 -0.34783,0 -0.69567,0 -1.04351,0 -0.23189,0 -0.46829,0.1093 -0.69568,0 -0.35953,-0.1729 -0.68184,-0.6915 -1.04351,-0.8364 -0.34311,-0.1375 -0.69568,0 -1.04352,0 -1.04351,0 -2.08703,0 -3.13054,0 -0.34783,0 -0.70606,0.2029 -1.04351,0 -0.15908,-0.096 -0.19228,-0.7117 -0.34784,-0.8363 -0.21999,-0.1763 -0.46378,0 -0.69568,0 -0.23189,0 -0.46378,0 -0.69568,0 -0.69567,0 -1.39135,0 -2.08702,0 -1.39135,0 -2.7827,0 -4.17406,0 -0.26555,0 -1.86787,-0.1757 -2.08703,0 -0.24595,0.1971 -0.44415,0.6851 -0.69568,0.8363 -0.26452,0.159 -1.44791,0 -1.73918,0 -1.5073,0 -3.0146,0 -4.5219,0 -0.25472,0 -1.74153,-0.1661 -2.08703,0 -0.35953,0.1729 -0.68398,0.6635 -1.04351,0.8364 -0.22739,0.1093 -0.46379,0 -0.69568,0 -0.69567,0 -1.39135,0 -2.08703,0 -0.46378,0 -0.92756,0 -1.39135,0 -0.23189,0 -0.46379,0 -0.69568,0 -0.11594,0 -0.24413,-0.1247 -0.34783,0 -0.14666,0.1763 -0.20118,0.66 -0.34784,0.8363 -0.10371,0.1247 -0.23189,0 -0.34784,0 -0.11595,0 -0.23189,0 -0.34784,0 -0.92757,0 -1.85513,0 -2.78271,0 -0.24019,0 -1.28559,-0.1272 -1.39135,0 -0.14666,0.1763 -0.20117,0.66 -0.34783,0.8363 -0.13792,0.1658 -0.9724,-0.1709 -1.04352,0 -0.082,0.1972 0.082,0.6392 0,0.8364 -0.0278,0.067 -0.55666,-0.056 -0.69567,0 -0.58317,0.2337 -1.15947,0.5575 -1.7392,0.8363 z"
       id="path2987-25-7-5-7-5-99-2-3-7"
       inkscape:connector-curvature="0" />
    <path
       style="fill:none;stroke:#ffffff;stroke-width:0.94388169;stroke-linecap:butt;stroke-linejoin:miter;stroke-miterlimit:4;stroke-dasharray:none;stroke-opacity:1"
       d="m 421.86843,842.92591 c 0,-8.0846 0,-16.16921 0,-24.25381 0,-5.85435 0,-11.70872 0,-17.56309 0,-1.3939 0,-2.7878 0,-4.18169 0,-1.11512 -0.091,-2.25189 0,-3.34535 0.0322,-0.3866 0.30807,-0.45387 0.34784,-0.83634 0.0774,-0.74479 0,-4.74372 0,-5.85433 0,-0.27879 0,-0.55758 0,-0.83635 0,-0.27879 -0.1037,-0.71166 0,-0.83634 0.20741,-0.24935 0.46379,0 0.69568,0 0.77312,0 1.69455,0.25429 2.43487,0 0.36297,-0.12468 0.6791,-0.739 1.04351,-0.83633 0.69142,-0.18473 1.39135,0 2.08703,0 0.57973,0 1.15946,0 1.73919,0 2.43487,0 4.86973,0 7.3046,0 1.85513,0 3.71027,0 5.56541,0 0.92756,0 1.85513,0 2.78271,0 0.23189,0 0.46828,0.10934 0.69567,0 2.4725,-1.18897 -0.57413,-0.83635 2.43487,-0.83635 1.62324,0 3.24648,0 4.86973,0 0.57973,0 1.15946,0 1.73919,0 0.23189,0 0.46829,0.10936 0.69568,0 0.35953,-0.17289 0.68185,-0.6914 1.04351,-0.83634 0.57185,-0.22915 1.15946,0 1.73919,0 0.92757,0 1.85514,0 2.78271,0 1.97108,0 3.94216,0 5.91324,0 0.34784,0 0.69568,0 1.04352,0 0.11595,0 0.26585,-0.19712 0.34784,0 0.16397,0.39425 -0.0733,1.14373 0,1.67269 0.98537,4.73842 -0.12963,-1.24675 0.34783,3.34535 0.0629,0.60476 0.28496,1.06792 0.34784,1.67266 0.0684,0.65788 0,4.14828 0,5.01802 0,0.27878 -0.0281,0.56588 0,0.83634 0.0889,0.85525 0.28756,1.63942 0.34784,2.50901 0.0572,0.82495 0,1.67267 0,2.50901 0,2.23023 0,4.46048 0,6.69071 0,4.73924 0,9.47849 0,14.21774 0,4.73924 0,9.47848 0,14.21779 0,1.1151 0,2.2302 0,3.3453 0,0.2788 0.11595,0.8364 0,0.8364 -0.11595,0 0.11595,-0.8364 0,-0.8364 -0.16397,0 -0.20117,0.66 -0.34784,0.8364 -0.1037,0.1246 -0.23189,0 -0.34784,0 -0.11594,0 -0.23189,0 -0.34783,0 -0.57974,0 -1.15947,0 -1.73919,0 -1.04352,0 -2.08703,0 -3.13055,0 -0.34783,0 -0.69567,0 -1.04351,0 -0.23189,0 -0.46829,0.1093 -0.69568,0 -0.35953,-0.1729 -0.68184,-0.6915 -1.04351,-0.8364 -0.34311,-0.1375 -0.69568,0 -1.04352,0 -1.04351,0 -2.08703,0 -3.13054,0 -0.34783,0 -0.70606,0.2029 -1.04351,0 -0.15908,-0.096 -0.19228,-0.7117 -0.34784,-0.8363 -0.21999,-0.1763 -0.46378,0 -0.69568,0 -0.23189,0 -0.46378,0 -0.69568,0 -0.69567,0 -1.39135,0 -2.08702,0 -1.39135,0 -2.7827,0 -4.17406,0 -0.26555,0 -1.86787,-0.1757 -2.08703,0 -0.24595,0.1971 -0.44415,0.6851 -0.69568,0.8363 -0.26452,0.159 -1.44791,0 -1.73918,0 -1.5073,0 -3.0146,0 -4.5219,0 -0.25472,0 -1.74153,-0.1661 -2.08703,0 -0.35953,0.1729 -0.68398,0.6635 -1.04351,0.8364 -0.22739,0.1093 -0.46379,0 -0.69568,0 -0.69567,0 -1.39135,0 -2.08703,0 -0.46378,0 -0.92756,0 -1.39135,0 -0.23189,0 -0.46379,0 -0.69568,0 -0.11594,0 -0.24413,-0.1247 -0.34783,0 -0.14666,0.1763 -0.20118,0.66 -0.34784,0.8363 -0.10371,0.1247 -0.23189,0 -0.34784,0 -0.11595,0 -0.23189,0 -0.34784,0 -0.92757,0 -1.85513,0 -2.78271,0 -0.24019,0 -1.28559,-0.1272 -1.39135,0 -0.14666,0.1763 -0.20117,0.66 -0.34783,0.8363 -0.13792,0.1658 -0.9724,-0.1709 -1.04352,0 -0.082,0.1972 0.082,0.6392 0,0.8364 -0.0278,0.067 -0.55666,-0.056 -0.69567,0 -0.58317,0.2337 -1.15947,0.5575 -1.7392,0.8363 z"
       id="path2987-25-7-5-7-5-99-2-5-4"
       inkscape:connector-curvature="0" />
    <path
       style="fill:none;stroke:#ffffff;stroke-width:0.94388169;stroke-linecap:butt;stroke-linejoin:miter;stroke-miterlimit:4;stroke-dasharray:none;stroke-opacity:1"
       d="m 542.75006,842.92591 c 0,-8.0846 0,-16.16921 0,-24.25381 0,-5.85435 0,-11.70872 0,-17.56309 0,-1.3939 0,-2.7878 0,-4.18169 0,-1.11512 -0.091,-2.25189 0,-3.34535 0.0322,-0.3866 0.30807,-0.45387 0.34784,-0.83634 0.0774,-0.74479 0,-4.74372 0,-5.85433 0,-0.27879 0,-0.55758 0,-0.83635 0,-0.27879 -0.1037,-0.71166 0,-0.83634 0.20741,-0.24935 0.46379,0 0.69568,0 0.77312,0 1.69455,0.25429 2.43487,0 0.36297,-0.12468 0.6791,-0.739 1.04351,-0.83633 0.69142,-0.18473 1.39135,0 2.08703,0 0.57973,0 1.15946,0 1.73919,0 2.43487,0 4.86973,0 7.3046,0 1.85513,0 3.71027,0 5.56541,0 0.92756,0 1.85513,0 2.78271,0 0.23189,0 0.46828,0.10934 0.69567,0 2.4725,-1.18897 -0.57413,-0.83635 2.43487,-0.83635 1.62324,0 3.24648,0 4.86973,0 0.57973,0 1.15946,0 1.73919,0 0.23189,0 0.46829,0.10936 0.69568,0 0.35953,-0.17289 0.68185,-0.6914 1.04351,-0.83634 0.57185,-0.22915 1.15946,0 1.73919,0 0.92757,0 1.85514,0 2.78271,0 1.97108,0 3.94216,0 5.91324,0 0.34784,0 0.69568,0 1.04352,0 0.11595,0 0.26585,-0.19712 0.34784,0 0.16397,0.39425 -0.0733,1.14373 0,1.67269 0.98537,4.73842 -0.12963,-1.24675 0.34783,3.34535 0.0629,0.60476 0.28496,1.06792 0.34784,1.67266 0.0684,0.65788 0,4.14828 0,5.01802 0,0.27878 -0.0281,0.56588 0,0.83634 0.0889,0.85525 0.28756,1.63942 0.34784,2.50901 0.0572,0.82495 0,1.67267 0,2.50901 0,2.23023 0,4.46048 0,6.69071 0,4.73924 0,9.47849 0,14.21774 0,4.73924 0,9.47848 0,14.21779 0,1.1151 0,2.2302 0,3.3453 0,0.2788 0.11595,0.8364 0,0.8364 -0.11595,0 0.11595,-0.8364 0,-0.8364 -0.16397,0 -0.20117,0.66 -0.34784,0.8364 -0.1037,0.1246 -0.23189,0 -0.34784,0 -0.11594,0 -0.23189,0 -0.34783,0 -0.57974,0 -1.15947,0 -1.73919,0 -1.04352,0 -2.08703,0 -3.13055,0 -0.34783,0 -0.69567,0 -1.04351,0 -0.23189,0 -0.46829,0.1093 -0.69568,0 -0.35953,-0.1729 -0.68184,-0.6915 -1.04351,-0.8364 -0.34311,-0.1375 -0.69568,0 -1.04352,0 -1.04351,0 -2.08703,0 -3.13054,0 -0.34783,0 -0.70606,0.2029 -1.04351,0 -0.15908,-0.096 -0.19228,-0.7117 -0.34784,-0.8363 -0.21999,-0.1763 -0.46378,0 -0.69568,0 -0.23189,0 -0.46378,0 -0.69568,0 -0.69567,0 -1.39135,0 -2.08702,0 -1.39135,0 -2.7827,0 -4.17406,0 -0.26555,0 -1.86787,-0.1757 -2.08703,0 -0.24595,0.1971 -0.44415,0.6851 -0.69568,0.8363 -0.26452,0.159 -1.44791,0 -1.73918,0 -1.5073,0 -3.0146,0 -4.5219,0 -0.25472,0 -1.74153,-0.1661 -2.08703,0 -0.35953,0.1729 -0.68398,0.6635 -1.04351,0.8364 -0.22739,0.1093 -0.46379,0 -0.69568,0 -0.69567,0 -1.39135,0 -2.08703,0 -0.46378,0 -0.92756,0 -1.39135,0 -0.23189,0 -0.46379,0 -0.69568,0 -0.11594,0 -0.24413,-0.1247 -0.34783,0 -0.14666,0.1763 -0.20118,0.66 -0.34784,0.8363 -0.10371,0.1247 -0.23189,0 -0.34784,0 -0.11595,0 -0.23189,0 -0.34784,0 -0.92757,0 -1.85513,0 -2.78271,0 -0.24019,0 -1.28559,-0.1272 -1.39135,0 -0.14666,0.1763 -0.20117,0.66 -0.34783,0.8363 -0.13792,0.1658 -0.9724,-0.1709 -1.04352,0 -0.082,0.1972 0.082,0.6392 0,0.8364 -0.0278,0.067 -0.55666,-0.056 -0.69567,0 -0.58317,0.2337 -1.15947,0.5575 -1.7392,0.8363 z"
       id="path2987-25-7-5-7-5-99-2-6-2"
       inkscape:connector-curvature="0" />
    <text
       xml:space="preserve"
       style="font-style:normal;font-weight:normal;font-size:22px;line-height:125%;font-family:Sans;letter-spacing:0px;word-spacing:0px;fill:#ffffff;fill-opacity:1;stroke:none"
       x="-257.38754"
       y="717.20288"
       id="text3149-4"
       sodipodi:linespacing="125%"
       transform="matrix(0.54526422,-0.83826424,0.83826424,0.54526422,0,0)"><tspan
         sodipodi:role="line"
         id="tspan3151-5"
         x="-257.38754"
         y="717.20288">/media/database</tspan></text>
    <text
       xml:space="preserve"
       style="font-style:normal;font-weight:normal;font-size:22px;line-height:125%;font-family:Sans;letter-spacing:0px;word-spacing:0px;fill:#ffffff;fill-opacity:1;stroke:none"
       x="-208.59372"
       y="779.43683"
       id="text3149-4-0"
       sodipodi:linespacing="125%"
       transform="matrix(0.54526422,-0.83826424,0.83826424,0.54526422,0,0)"><tspan
         sodipodi:role="line"
         id="tspan3151-5-7"
         x="-208.59372"
         y="779.43683">/media/backup</tspan></text>
    <text
       xml:space="preserve"
       style="font-style:normal;font-weight:normal;font-size:22px;line-height:125%;font-family:Sans;letter-spacing:0px;word-spacing:0px;fill:#ffffff;fill-opacity:1;stroke:none"
       x="691.26941"
       y="684.14142"
       id="text3137-3"
       sodipodi:linespacing="125%"><tspan
         sodipodi:role="line"
         id="tspan3139-9"
         x="691.26941"
         y="684.14142">Logical volumes</tspan></text>
    <text
       xml:space="preserve"
       style="font-style:normal;font-weight:normal;font-size:22px;line-height:125%;font-family:Sans;letter-spacing:0px;word-spacing:0px;fill:#ffffff;fill-opacity:1;stroke:none"
       x="201.15733"
       y="734.11676"
       id="text3137-8"
       sodipodi:linespacing="125%"><tspan
         sodipodi:role="line"
         id="tspan3139-8"
         x="201.15733"
         y="734.11676">LVM</tspan></text>
    <text
       xml:space="preserve"
       style="font-style:normal;font-weight:normal;font-size:22px;line-height:125%;font-family:Sans;letter-spacing:0px;word-spacing:0px;fill:#ffffff;fill-opacity:1;stroke:none"
       x="691.26941"
       y="567.2887"
       id="text3137-3-0"
       sodipodi:linespacing="125%"><tspan
         sodipodi:role="line"
         id="tspan3139-9-6"
         x="691.26941"
         y="567.2887">Filesystems</tspan></text>
  </g>
</svg>
